<svg id="visual" viewBox="0 0 4000 2000" width="4000" height="2000" xmlns="http://www.w3.org/2000/svg" xmlns:xlink="http://www.w3.org/1999/xlink" version="1.1"><rect x="0" y="0" width="4000" height="2000" fill="#ffe699"></rect><defs><linearGradient id="grad1_0" x1="50%" y1="0%" x2="100%" y2="100%"><stop offset="10%" stop-color="#6a3d39" stop-opacity="1"></stop><stop offset="90%" stop-color="#6a3d39" stop-opacity="1"></stop></linearGradient></defs><defs><linearGradient id="grad1_1" x1="50%" y1="0%" x2="100%" y2="100%"><stop offset="10%" stop-color="#6a3d39" stop-opacity="1"></stop><stop offset="90%" stop-color="#bd8964" stop-opacity="1"></stop></linearGradient></defs><defs><linearGradient id="grad1_2" x1="50%" y1="0%" x2="100%" y2="100%"><stop offset="10%" stop-color="#ffe699" stop-opacity="1"></stop><stop offset="90%" stop-color="#bd8964" stop-opacity="1"></stop></linearGradient></defs><defs><linearGradient id="grad2_0" x1="0%" y1="0%" x2="50%" y2="100%"><stop offset="10%" stop-color="#6a3d39" stop-opacity="1"></stop><stop offset="90%" stop-color="#6a3d39" stop-opacity="1"></stop></linearGradient></defs><defs><linearGradient id="grad2_1" x1="0%" y1="0%" x2="50%" y2="100%"><stop offset="10%" stop-color="#bd8964" stop-opacity="1"></stop><stop offset="90%" stop-color="#6a3d39" stop-opacity="1"></stop></linearGradient></defs><defs><linearGradient id="grad2_2" x1="0%" y1="0%" x2="50%" y2="100%"><stop offset="10%" stop-color="#bd8964" stop-opacity="1"></stop><stop offset="90%" stop-color="#ffe699" stop-opacity="1"></stop></linearGradient></defs><g transform="translate(4000, 0)"><path d="M0 1100C-94.2 903.1 -188.5 706.2 -369 639.1C-549.5 572.1 -816.4 634.9 -952.6 550C-1088.8 465.1 -1094.4 232.6 -1100 0L0 0Z" fill="#e1b67c"></path><path d="M0 733.3C-62.8 602.1 -125.6 470.8 -246 426.1C-366.4 381.4 -544.3 423.3 -635.1 366.7C-725.9 310.1 -729.6 155 -733.3 0L0 0Z" fill="#95614f"></path><path d="M0 366.7C-31.4 301 -62.8 235.4 -123 213C-183.2 190.7 -272.1 211.6 -317.5 183.3C-362.9 155 -364.8 77.5 -366.7 0L0 0Z" fill="#6a3d39"></path></g><g transform="translate(0, 2000)"><path d="M0 -1100C223.6 -1089.2 447.1 -1078.4 550 -952.6C652.9 -826.8 635.1 -585.9 706.7 -408C778.2 -230.1 939.1 -115 1100 0L0 0Z" fill="#e1b67c"></path><path d="M0 -733.3C149 -726.1 298.1 -719 366.7 -635.1C435.3 -551.2 423.4 -390.6 471.1 -272C518.8 -153.4 626.1 -76.7 733.3 0L0 0Z" fill="#95614f"></path><path d="M0 -366.7C74.5 -363.1 149 -359.5 183.3 -317.5C217.6 -275.6 211.7 -195.3 235.6 -136C259.4 -76.7 313 -38.3 366.7 0L0 0Z" fill="#6a3d39"></path></g></svg>